<?xml version="1.0" encoding="UTF-8" standalone="no"?>
<!DOCTYPE svg PUBLIC "-//W3C//DTD SVG 1.1//EN" "http://www.w3.org/Graphics/SVG/1.1/DTD/svg11.dtd">
<svg width="3545px" height="2108px" version="1.1" xmlns="http://www.w3.org/2000/svg" xmlns:xlink="http://www.w3.org/1999/xlink" xml:space="preserve" xmlns:serif="http://www.serif.com/" style="fill-rule:evenodd;clip-rule:evenodd;stroke-miterlimit:10;">
    <g transform="matrix(1,0,0,1,-287.888,-892.528)">
        <g id="Logo" transform="matrix(8.33333,0,0,8.33333,0,0)">
            <g>
                <g transform="matrix(-1,0,0,1,98.435,-1508.23)">
                    <rect x="39.073" y="1827.1" width="20.289" height="14.029" style="fill:rgb(187,189,192);"/>
                </g>
                <g transform="matrix(-1,0,0,1,98.435,-1465.9)">
                    <rect x="39.073" y="1800.05" width="20.289" height="25.81" style="fill:rgb(187,189,192);"/>
                </g>
                <g transform="matrix(-1,0,0,1,43.3819,332.244)">
                    <path d="M-11.671,25.306L0,25.306L-3.183,0L-8.047,0L-11.671,25.306Z" style="fill:white;fill-rule:nonzero;"/>
                </g>
                <g transform="matrix(0,-1,-1,0,49.2177,320.365)">
                    <path d="M-6.749,-6.749C-10.476,-6.749 -13.498,-3.728 -13.498,0.001C-13.498,3.728 -10.476,6.749 -6.749,6.749C-3.021,6.749 0.001,3.728 0.001,0.001C0.001,-3.728 -3.021,-6.749 -6.749,-6.749" style="fill:white;fill-rule:nonzero;"/>
                </g>
                <text x="64.454px" y="334.841px" style="font-family:'ArialMT', 'Arial', sans-serif;font-size:20.619px;fill:white;">U<tspan x="81.226px 97.999px 111.349px 129.27px 146.043px 161.678px 169.289px 186.062px " y="334.841px 334.841px 334.841px 334.841px 334.841px 334.841px 334.841px 334.841px ">NLOCKING</tspan></text>
                <text x="64.454px" y="359.584px" style="font-family:'ArialMT', 'Arial', sans-serif;font-size:20.619px;fill:white;">Y<tspan x="78.605px 95.042px 110.332px 125.621px 133.237px 147.389px 160.01px 174.162px 189.451px " y="359.584px 359.584px 359.584px 359.584px 359.584px 359.584px 359.584px 359.584px 359.584px ">OUR SPACE</tspan></text>
            </g>
            <g>
                <g transform="matrix(0,-1,-1,0,278.477,130.495)">
                    <path d="M-2.315,2.315L2.315,2.315" style="fill:none;fill-rule:nonzero;stroke:rgb(88,89,91);stroke-width:0.5px;"/>
                </g>
                <g transform="matrix(0,-1,-1,0,236.349,174.421)">
                    <path d="M-3.096,3.096L3.096,3.096" style="fill:none;fill-rule:nonzero;stroke:rgb(88,89,91);stroke-width:0.5px;"/>
                </g>
                <g transform="matrix(0,-1,-1,0,198.92,219.503)">
                    <path d="M-4.136,4.136L4.136,4.136" style="fill:none;fill-rule:nonzero;stroke:white;stroke-width:1px;"/>
                </g>
                <g transform="matrix(1,0,0,1,212.548,182.26)">
                    <path d="M0,30.745L-92.194,30.868L-92.194,-0.123" style="fill:none;fill-rule:nonzero;stroke:white;stroke-width:1px;"/>
                </g>
                <g transform="matrix(0,-1,-1,0,232.538,186.322)">
                    <path d="M-4.265,4.265L4.265,4.265" style="fill:none;fill-rule:nonzero;stroke:white;stroke-width:1px;"/>
                </g>
                <g transform="matrix(0,-1,-1,0,300.91,114.854)">
                    <path d="M-2.726,2.726L2.726,2.726" style="fill:none;fill-rule:nonzero;stroke:white;stroke-width:1px;"/>
                </g>
                <g transform="matrix(0,-1,-1,0,277.664,138.181)">
                    <path d="M-3.318,3.318L3.318,3.318" style="fill:none;fill-rule:nonzero;stroke:white;stroke-width:1px;"/>
                </g>
                <g transform="matrix(0,-1,-1,0,255.3,161.929)">
                    <path d="M-3.334,3.334L3.334,3.334" style="fill:none;fill-rule:nonzero;stroke:white;stroke-width:1px;"/>
                </g>
                <g transform="matrix(0,-1,-1,0,352.751,146.957)">
                    <path d="M-12.291,12.291L12.291,12.291" style="fill:none;fill-rule:nonzero;stroke:white;stroke-width:1px;"/>
                </g>
                <g transform="matrix(-0.0119139,-0.999929,-0.999929,0.0119139,228.509,147.067)">
                    <path d="M-13.887,13.722L13.56,13.722" style="fill:none;fill-rule:nonzero;stroke:white;stroke-width:1px;"/>
                </g>
                <g transform="matrix(178.222,0,0,-178.222,120.155,147.189)">
                    <path d="M0.391,0.196L0,-0.195L0.609,-0.196L0.741,-0.065L0.414,-0.065L0.533,0.067L0.868,0.068L1,0.196L0.391,0.196Z" style="fill:url(#_Linear1);fill-rule:nonzero;"/>
                </g>
                <g transform="matrix(1,0,0,1,298.376,182.125)">
                    <path d="M0,-69.871L-108.528,-69.871L-178.222,-0.112L-69.654,0L-46.215,-23.405L-104.519,-23.332L-83.288,-46.943L-23.585,-47.123L0,-69.871Z" style="fill:none;fill-rule:nonzero;stroke:white;stroke-width:0.25px;"/>
                </g>
                <g transform="matrix(0,1,1,0,109.767,333.532)">
                    <path d="M-70.196,36.766L-36.493,36.766L-36.492,36.663L-36.492,-70.196L-70.47,-70.196" style="fill:none;fill-rule:nonzero;stroke:white;stroke-width:1px;"/>
                </g>
                <g transform="matrix(1,0,0,1,212.175,297.262)">
                    <path d="M0,-34.27L0,0L-59.894,-0.006L-59.894,-33.731" style="fill:none;fill-rule:nonzero;stroke:white;stroke-width:1px;"/>
                </g>
                <g transform="matrix(-0.703637,0.710559,0.710559,0.703637,253.392,314.07)">
                    <path d="M-98.076,-40.906L17.061,-40.906" style="fill:none;fill-rule:nonzero;stroke:white;stroke-width:1px;"/>
                </g>
                <g transform="matrix(1,0,0,1,385.933,214.907)">
                    <path d="M0,-33.15L0,0.553L-92.498,0.553L-92.498,-33.703" style="fill:none;fill-rule:nonzero;stroke:white;stroke-width:1px;"/>
                </g>
                <g transform="matrix(1,0,0,1,386.074,112.814)">
                    <path d="M0,102.799L68.7,32.314L68.832,0" style="fill:none;fill-rule:nonzero;stroke:white;stroke-width:1px;"/>
                </g>
                <g transform="matrix(0.631194,-0.775625,-0.775625,-0.631194,150.352,298.121)">
                    <path d="M-1.638,3.445L7.245,3.445" style="fill:none;fill-rule:nonzero;stroke:white;stroke-width:1px;"/>
                </g>
                <g transform="matrix(303.028,0,0,-303.028,152.082,187.937)">
                    <path d="M0,-0.249L0.2,-0.25L0.468,0.02L0.773,0.019L1,0.247L0.496,0.25L0,-0.249ZM0.544,0.098L0.623,0.176L0.801,0.175L0.718,0.095L0.544,0.098Z" style="fill:url(#_Linear2);fill-rule:nonzero;"/>
                </g>
                <g transform="matrix(1,0,0,1,369.646,216.636)">
                    <path d="M0,-57.397L-52.745,-58.288L-28.738,-81.906L25.288,-81.709L0,-57.397ZM-67.265,-104.382L-217.565,46.771L-157.025,46.985L-75.768,-34.879L16.738,-34.34L85.464,-103.696L-67.265,-104.382Z" style="fill:none;fill-rule:nonzero;stroke:white;stroke-width:0.25px;"/>
                </g>
                <g transform="matrix(-111.753,108.274,108.274,111.753,173.058,185.3)">
                    <path d="M0.528,-0.239L0.964,-0.239L0.47,0.244L0.034,0.237L0.528,-0.239Z" style="fill:url(#_Linear3);fill-rule:nonzero;"/>
                </g>
                <g transform="matrix(-0.999998,0.00199341,0.00199341,0.999998,39.4284,263.537)">
                    <path d="M-155.65,-47.735L-48.797,-47.735L0.047,-0.599L-107.555,0.059L-155.65,-47.735Z" style="fill:none;fill-rule:nonzero;stroke:white;stroke-width:0.25px;"/>
                </g>
            </g>
        </g>
    </g>
    <defs>
        <linearGradient id="_Linear1" x1="0" y1="0" x2="1" y2="0" gradientUnits="userSpaceOnUse" gradientTransform="matrix(1,0,0,-1,0,-5.08468e-06)"><stop offset="0" style="stop-color:rgb(79,76,77);stop-opacity:1"/><stop offset="1" style="stop-color:rgb(189,188,188);stop-opacity:1"/></linearGradient>
        <linearGradient id="_Linear2" x1="0" y1="0" x2="1" y2="0" gradientUnits="userSpaceOnUse" gradientTransform="matrix(1,0,0,-1,0,-2.49416e-06)"><stop offset="0" style="stop-color:rgb(79,76,77);stop-opacity:1"/><stop offset="1" style="stop-color:rgb(189,188,188);stop-opacity:1"/></linearGradient>
        <linearGradient id="_Linear3" x1="0" y1="0" x2="1" y2="0" gradientUnits="userSpaceOnUse" gradientTransform="matrix(-0.7182,0.695837,0.695837,0.7182,0.859097,-0.347917)"><stop offset="0" style="stop-color:rgb(79,76,77);stop-opacity:1"/><stop offset="1" style="stop-color:rgb(189,188,188);stop-opacity:1"/></linearGradient>
    </defs>
</svg>